<svg xmlns="http://www.w3.org/2000/svg" version="1.1" xmlns:xlink="http://www.w3.org/1999/xlink" xmlns:svgjs="http://svgjs.dev/svgjs" width="2000" height="1269" viewBox="0 0 2000 1269"><g transform="matrix(1,0,0,1,0.6178990275611795,0.5137651821862619)"><svg viewBox="0 0 389 247" data-background-color="#ffffff" preserveAspectRatio="xMidYMid meet" height="1269" width="2000" xmlns="http://www.w3.org/2000/svg" xmlns:xlink="http://www.w3.org/1999/xlink"><g id="tight-bounds" transform="matrix(1,0,0,1,-0.12018136086064146,-0.09999999999999432)"><svg viewBox="0 0 389.2403627217213 247.2" height="247.2" width="389.2403627217213"><g><svg viewBox="0 0 395.5199999999999 251.18809189349224" height="247.2" width="389.2403627217213"><g><svg viewBox="0 0 395.5199999999999 251.18809189349224" height="251.18809189349224" width="395.5199999999999"><g id="textblocktransform"><svg viewBox="0 0 395.5199999999999 251.18809189349224" height="251.18809189349224" width="395.5199999999999" id="textblock"><g><rect width="106.79039999999998" height="16.982284315402136" y="233.48765567037753" fill="#000000" data-fill-palette-color="tertiary"></rect><rect width="106.79039999999998" height="16.982284315402136" y="233.48765567037753" x="288.72959999999995" fill="#000000" data-fill-palette-color="tertiary"></rect></g><g><svg viewBox="0 0 395.5199999999999 188.3132620993086" height="188.3132620993086" width="395.5199999999999"><g transform="matrix(1,0,0,1,0,0)"><svg width="395.5199999999999" viewBox="4.32 -36.11 77.68 36.989999999999995" height="188.3132620993086" data-palette-color="#000000"><path d="M30.96-23.58L30.96-3.54 31.03-1.05Q31.03-0.42 30.66-0.07 30.3 0.27 29.82 0.27 29.35 0.27 29.06-0.05 28.78-0.37 28.78-0.85L28.78-0.85Q28.78-1.34 28.91-1.95L28.91-1.95Q29.08-2.71 29.08-5.74L29.08-5.74 29.08-23.56 16.8-23.56 16.8 0 4.32 0 4.32-34.55 16.8-34.55 16.8-25.34Q22.07-25.34 25.21-25.34 28.34-25.34 29.08-25.37L29.08-25.37 29.08-29.61Q29.08-31.74 29-32.37L29-32.37 28.91-33.11Q28.88-33.45 28.88-33.69L28.88-33.69Q28.88-34.81 29.91-34.81L29.91-34.81Q30.27-34.81 30.66-34.52 31.05-34.23 31.05-33.54L31.05-33.54 30.96-30.42 30.96-25.46 32.5-25.68Q32.93-25.68 33.23-25.43 33.52-25.17 33.52-24.76L33.52-24.76Q33.52-23.8 32.01-23.68L32.01-23.68Q31.74-23.63 31.48-23.62 31.23-23.61 30.96-23.58L30.96-23.58ZM36.86 0.37Q36.4 0.32 36.15-0.05 35.91-0.42 35.96-0.85L35.96-0.85Q36.08-1.61 36.42-2.25 36.77-2.88 36.92-3.2 37.08-3.52 37.25-3.91L37.25-3.91 38.18-6.05 48.22-36.11 59.01-15.26 69.48-36.11 82 0 68.89 0 62.84-18.65 53.46 0.88 43.6-16.7 40.18-6.03Q39.38-4.25 39.04-3 38.69-1.76 38.47-1.07L38.47-1.07Q37.99 0.46 36.86 0.37L36.86 0.37Z" opacity="1" transform="matrix(1,0,0,1,0,0)" fill="#000000" class="wordmark-text-0" data-fill-palette-color="primary" id="text-0"></path></svg></g></svg></g><g transform="matrix(1,0,0,1,106.79039999999998,232.76950376266495)"><svg viewBox="0 0 181.93919999999997 18.418588130827285" height="18.418588130827285" width="181.93919999999997"><g transform="matrix(1,0,0,1,8,0)"><svg width="165.93919999999997" viewBox="4.05 -37 337.82 37.5" height="18.418588130827285" data-palette-color="#000000"><path d="M6.75-35L6.75-35Q7.75-35 8.53-34.27 9.3-33.55 9.3-32.45L9.3-32.45 9.3-2.55Q9.25-1.45 8.47-0.73 7.7 0 6.65 0L6.65 0Q5.5 0 4.78-0.73 4.05-1.45 4.05-2.55L4.05-2.55 4.05-32.45Q4.05-33.55 4.8-34.27 5.55-35 6.75-35ZM29.3-35L29.3-35Q30.5-35 31.2-34.27 31.9-33.55 31.9-32.45L31.9-32.45 31.9-2.55Q31.9-1.45 31.18-0.73 30.45 0 29.25 0L29.25 0Q28.2 0 27.45-0.73 26.7-1.45 26.7-2.55L26.7-2.55 26.7-32.45Q26.7-33.55 27.48-34.27 28.25-35 29.3-35ZM6.5-15.3L6.55-20.1 29.35-20.1 29.3-15.3 6.5-15.3ZM60.8-26.7L60.8-26.7Q61.85-26.7 62.57-25.98 63.3-25.25 63.3-24.15L63.3-24.15 63.3-2.55Q63.3-1.45 62.57-0.73 61.85 0 60.8 0L60.8 0Q59.7 0 59-0.73 58.3-1.45 58.3-2.55L58.3-2.55 58.3-6.15 59.3-6Q59.3-5.1 58.57-4 57.85-2.9 56.6-1.88 55.35-0.85 53.65-0.18 51.95 0.5 50 0.5L50 0.5Q46.55 0.5 43.8-1.28 41.05-3.05 39.45-6.15 37.85-9.25 37.85-13.2L37.85-13.2Q37.85-17.25 39.45-20.33 41.05-23.4 43.77-25.15 46.5-26.9 49.85-26.9L49.85-26.9Q52-26.9 53.82-26.2 55.65-25.5 57-24.4 58.35-23.3 59.1-22.08 59.85-20.85 59.85-19.75L59.85-19.75 58.3-19.6 58.3-24.15Q58.3-25.2 59-25.95 59.7-26.7 60.8-26.7ZM50.6-4.1L50.6-4.1Q52.95-4.1 54.72-5.3 56.5-6.5 57.5-8.58 58.5-10.65 58.5-13.2L58.5-13.2Q58.5-15.8 57.5-17.85 56.5-19.9 54.72-21.1 52.95-22.3 50.6-22.3L50.6-22.3Q48.3-22.3 46.5-21.1 44.7-19.9 43.7-17.85 42.7-15.8 42.7-13.2L42.7-13.2Q42.7-10.65 43.7-8.58 44.7-6.5 46.47-5.3 48.25-4.1 50.6-4.1ZM72.75 0L72.75 0Q71.65 0 70.95-0.73 70.25-1.45 70.25-2.55L70.25-2.55 70.25-23.75Q70.25-24.85 70.95-25.58 71.65-26.3 72.75-26.3L72.75-26.3Q73.8-26.3 74.52-25.58 75.25-24.85 75.25-23.75L75.25-23.75 75.25-18.15 74.75-20.3Q75.15-21.7 75.97-22.9 76.8-24.1 77.95-25 79.09-25.9 80.52-26.4 81.95-26.9 83.5-26.9L83.5-26.9Q84.8-26.9 85.75-26.2 86.7-25.5 86.7-24.45L86.7-24.45Q86.7-23.1 86-22.48 85.3-21.85 84.45-21.85L84.45-21.85Q83.7-21.85 83-22.18 82.3-22.5 81.34-22.5L81.34-22.5Q80.3-22.5 79.2-21.95 78.09-21.4 77.2-20.33 76.3-19.25 75.77-17.8 75.25-16.35 75.25-14.55L75.25-14.55 75.25-2.55Q75.25-1.45 74.52-0.73 73.8 0 72.75 0ZM89.59-4.1L89.59-4.1Q89.14-4.8 89.19-5.73 89.24-6.65 90.24-7.3L90.24-7.3Q90.94-7.75 91.72-7.68 92.49-7.6 93.19-6.9L93.19-6.9Q94.59-5.35 96.32-4.45 98.04-3.55 100.49-3.55L100.49-3.55Q101.49-3.6 102.54-3.88 103.59-4.15 104.34-4.88 105.09-5.6 105.09-7L105.09-7Q105.09-8.25 104.29-9 103.49-9.75 102.19-10.23 100.89-10.7 99.39-11.1L99.39-11.1Q97.79-11.55 96.17-12.1 94.54-12.65 93.24-13.53 91.94-14.4 91.12-15.8 90.29-17.2 90.29-19.25L90.29-19.25Q90.29-21.6 91.62-23.3 92.94-25 95.07-25.95 97.19-26.9 99.69-26.9L99.69-26.9Q101.14-26.9 102.74-26.53 104.34-26.15 105.84-25.35 107.34-24.55 108.44-23.25L108.44-23.25Q108.94-22.6 109.02-21.7 109.09-20.8 108.19-20.1L108.19-20.1Q107.59-19.6 106.74-19.65 105.89-19.7 105.34-20.2L105.34-20.2Q104.39-21.4 102.89-22.08 101.39-22.75 99.49-22.75L99.49-22.75Q98.54-22.75 97.52-22.48 96.49-22.2 95.79-21.5 95.09-20.8 95.09-19.45L95.09-19.45Q95.09-18.2 95.92-17.45 96.74-16.7 98.09-16.2 99.44-15.7 101.04-15.3L101.04-15.3Q102.59-14.9 104.12-14.35 105.64-13.8 106.87-12.93 108.09-12.05 108.87-10.68 109.64-9.3 109.64-7.2L109.64-7.2Q109.64-4.75 108.22-3.03 106.79-1.3 104.62-0.4 102.44 0.5 100.04 0.5L100.04 0.5Q97.19 0.5 94.37-0.53 91.54-1.55 89.59-4.1ZM128.29-26.75L128.29-26.75Q131.74-26.75 133.64-25.28 135.54-23.8 136.32-21.3 137.09-18.8 137.09-15.8L137.09-15.8 137.09-2.55Q137.09-1.45 136.37-0.73 135.64 0 134.59 0L134.59 0Q133.49 0 132.79-0.73 132.09-1.45 132.09-2.55L132.09-2.55 132.09-15.8Q132.09-17.55 131.62-19 131.14-20.45 129.97-21.3 128.79-22.15 126.69-22.15L126.69-22.15Q124.74-22.15 123.22-21.3 121.69-20.45 120.87-19 120.04-17.55 120.04-15.8L120.04-15.8 120.04-2.55Q120.04-1.45 119.32-0.73 118.59 0 117.54 0L117.54 0Q116.44 0 115.74-0.73 115.04-1.45 115.04-2.55L115.04-2.55 115.04-34.45Q115.04-35.55 115.74-36.27 116.44-37 117.54-37L117.54-37Q118.59-37 119.32-36.27 120.04-35.55 120.04-34.45L120.04-34.45 120.04-20.8 119.14-20.3Q119.49-21.4 120.32-22.55 121.14-23.7 122.37-24.65 123.59-25.6 125.09-26.18 126.59-26.75 128.29-26.75ZM165.39-26.7L165.39-26.7Q166.44-26.7 167.16-25.98 167.89-25.25 167.89-24.15L167.89-24.15 167.89-2.55Q167.89-1.45 167.16-0.73 166.44 0 165.39 0L165.39 0Q164.29 0 163.59-0.73 162.89-1.45 162.89-2.55L162.89-2.55 162.89-6.15 163.89-6Q163.89-5.1 163.16-4 162.44-2.9 161.19-1.88 159.94-0.85 158.24-0.18 156.54 0.5 154.59 0.5L154.59 0.5Q151.14 0.5 148.39-1.28 145.64-3.05 144.04-6.15 142.44-9.25 142.44-13.2L142.44-13.2Q142.44-17.25 144.04-20.33 145.64-23.4 148.36-25.15 151.09-26.9 154.44-26.9L154.44-26.9Q156.59-26.9 158.41-26.2 160.24-25.5 161.59-24.4 162.94-23.3 163.69-22.08 164.44-20.85 164.44-19.75L164.44-19.75 162.89-19.6 162.89-24.15Q162.89-25.2 163.59-25.95 164.29-26.7 165.39-26.7ZM155.19-4.1L155.19-4.1Q157.54-4.1 159.31-5.3 161.09-6.5 162.09-8.58 163.09-10.65 163.09-13.2L163.09-13.2Q163.09-15.8 162.09-17.85 161.09-19.9 159.31-21.1 157.54-22.3 155.19-22.3L155.19-22.3Q152.89-22.3 151.09-21.1 149.29-19.9 148.29-17.85 147.29-15.8 147.29-13.2L147.29-13.2Q147.29-10.65 148.29-8.58 149.29-6.5 151.06-5.3 152.84-4.1 155.19-4.1ZM180.24-34.45L180.24-2.55Q180.24-1.45 179.51-0.73 178.79 0 177.74 0L177.74 0Q176.69 0 175.96-0.73 175.24-1.45 175.24-2.55L175.24-2.55 175.24-34.45Q175.24-35.55 175.99-36.27 176.74-37 177.79-37L177.79-37Q178.89-37 179.56-36.27 180.24-35.55 180.24-34.45L180.24-34.45ZM204.73-35.05L204.73-35.05Q205.33-35.05 205.98-34.75 206.63-34.45 206.98-33.9L206.98-33.9 219.68-14.55 217.53-14.65 230.48-33.9Q231.28-35.05 232.53-35.05L232.53-35.05Q233.53-35.05 234.31-34.33 235.08-33.6 235.08-32.5L235.08-32.5 235.08-2.55Q235.08-1.45 234.38-0.73 233.68 0 232.53 0L232.53 0Q231.33 0 230.61-0.73 229.88-1.45 229.88-2.55L229.88-2.55 229.88-27.9 231.48-27.55 220.48-10.8Q220.13-10.35 219.58-10.03 219.03-9.7 218.43-9.75L218.43-9.75Q217.88-9.7 217.31-10.03 216.73-10.35 216.38-10.8L216.38-10.8 205.78-27.3 206.98-29.3 206.98-2.55Q206.98-1.45 206.31-0.73 205.63 0 204.53 0L204.53 0Q203.48 0 202.81-0.73 202.13-1.45 202.13-2.55L202.13-2.55 202.13-32.5Q202.13-33.55 202.91-34.3 203.68-35.05 204.73-35.05ZM262.28-26.3L262.28-26.3Q263.33-26.3 264.05-25.58 264.78-24.85 264.78-23.75L264.78-23.75 264.78-10.6Q264.78-5.4 261.88-2.48 258.98 0.45 253.68 0.45L253.68 0.45Q248.43 0.45 245.55-2.48 242.68-5.4 242.68-10.6L242.68-10.6 242.68-23.75Q242.68-24.85 243.38-25.58 244.08-26.3 245.18-26.3L245.18-26.3Q246.23-26.3 246.95-25.58 247.68-24.85 247.68-23.75L247.68-23.75 247.68-10.6Q247.68-7.35 249.2-5.75 250.73-4.15 253.68-4.15L253.68-4.15Q256.68-4.15 258.23-5.75 259.78-7.35 259.78-10.6L259.78-10.6 259.78-23.75Q259.78-24.85 260.48-25.58 261.18-26.3 262.28-26.3ZM274.63 0L274.63 0Q273.58 0 272.85-0.73 272.13-1.45 272.13-2.55L272.13-2.55 272.13-34.45Q272.13-35.55 272.85-36.27 273.58-37 274.63-37L274.63-37Q275.73-37 276.43-36.27 277.13-35.55 277.13-34.45L277.13-34.45 277.13-2.55Q277.13-1.45 276.43-0.73 275.73 0 274.63 0ZM290.93-26.4L290.93-26.4Q291.88-26.4 292.58-25.6 293.28-24.8 293.28-24L293.28-24Q293.28-23 292.33-22.15L292.33-22.15 276.68-8.15 276.48-13.9 289.08-25.6Q289.88-26.4 290.93-26.4ZM291.53-0.05L291.53-0.05Q290.48-0.05 289.73-0.9L289.73-0.9 279.73-11.45 283.53-14.95 293.28-4.4Q294.08-3.55 294.08-2.5L294.08-2.5Q294.08-1.4 293.2-0.73 292.33-0.05 291.53-0.05ZM299.27-26L299.27-26 311.02-26Q312.02-26 312.7-25.33 313.37-24.65 313.37-23.65L313.37-23.65Q313.37-22.7 312.7-22.05 312.02-21.4 311.02-21.4L311.02-21.4 299.27-21.4Q298.27-21.4 297.6-22.08 296.92-22.75 296.92-23.7L296.92-23.7Q296.92-24.7 297.6-25.35 298.27-26 299.27-26ZM304.52-32.5L304.52-32.5Q305.62-32.5 306.32-31.78 307.02-31.05 307.02-29.95L307.02-29.95 307.02-6.75Q307.02-5.85 307.32-5.3 307.62-4.75 308.15-4.55 308.67-4.35 309.22-4.35L309.22-4.35Q309.77-4.35 310.2-4.55 310.62-4.75 311.22-4.75L311.22-4.75Q311.82-4.75 312.32-4.2 312.82-3.65 312.82-2.7L312.82-2.7Q312.82-1.5 311.52-0.75 310.22 0 308.72 0L308.72 0Q307.87 0 306.72-0.15 305.57-0.3 304.5-0.9 303.42-1.5 302.72-2.83 302.02-4.15 302.02-6.55L302.02-6.55 302.02-29.95Q302.02-31.05 302.75-31.78 303.47-32.5 304.52-32.5ZM330.67 0.5L330.67 0.5Q326.57 0.5 323.5-1.23 320.42-2.95 318.75-5.98 317.07-9 317.07-12.9L317.07-12.9Q317.07-17.3 318.85-20.43 320.62-23.55 323.5-25.23 326.37-26.9 329.57-26.9L329.57-26.9Q331.97-26.9 334.19-25.93 336.42-24.95 338.12-23.23 339.82-21.5 340.82-19.18 341.82-16.85 341.87-14.1L341.87-14.1Q341.82-13.1 341.07-12.45 340.32-11.8 339.32-11.8L339.32-11.8 319.92-11.8 318.72-16.05 337.52-16.05 336.57-15.15 336.57-16.4Q336.42-18.15 335.37-19.48 334.32-20.8 332.8-21.53 331.27-22.25 329.57-22.25L329.57-22.25Q328.07-22.25 326.67-21.78 325.27-21.3 324.22-20.25 323.17-19.2 322.52-17.48 321.87-15.75 321.87-13.2L321.87-13.2Q321.87-10.45 323.02-8.4 324.17-6.35 326.12-5.23 328.07-4.1 330.47-4.1L330.47-4.1Q332.27-4.1 333.47-4.48 334.67-4.85 335.47-5.4 336.27-5.95 336.87-6.45L336.87-6.45Q337.67-6.9 338.37-6.9L338.37-6.9Q339.27-6.9 339.87-6.28 340.47-5.65 340.47-4.8L340.47-4.8Q340.47-3.7 339.37-2.8L339.37-2.8Q338.02-1.5 335.65-0.5 333.27 0.5 330.67 0.5Z" opacity="1" transform="matrix(1,0,0,1,0,0)" fill="#000000" class="slogan-text-1" data-fill-palette-color="secondary" id="text-1"></path></svg></g></svg></g></svg></g></svg></g></svg></g><defs></defs></svg><rect width="389.2403627217213" height="247.2" fill="none" stroke="none" visibility="hidden"></rect></g></svg></g></svg>